<svg width="299" height="283" viewBox="0 0 299 283" fill="none" xmlns="http://www.w3.org/2000/svg">
<path d="M173.992 20.7923C274.423 40.2434 95.6176 144.756 252.304 127.987C251.294 185.818 199.753 265.765 141.922 264.755C84.0911 263.746 18.4004 181.752 19.4098 123.922C20.4193 66.0907 116.161 19.7829 173.992 20.7923Z" fill="#C2A070"/>
<path fill-rule="evenodd" clip-rule="evenodd" d="M252.152 132.05C277.007 106.849 298.58 74.5474 275.877 47.4916C258.737 27.0641 230.794 27.9602 203.849 36.764C205.057 38.8771 205.823 41.1169 206.223 43.4576C206.373 43.409 206.522 43.3607 206.671 43.3127C232.843 34.8901 256.416 35.3439 270.439 52.0554C277.544 60.5233 279.352 69.2864 277.898 78.3175C276.389 87.6905 271.289 97.665 263.885 107.712C258.491 115.032 252.11 122.089 245.516 128.657C247.705 128.46 249.967 128.237 252.304 127.987C252.28 129.329 252.23 130.684 252.152 132.05Z" fill="#9C6B30"/>
</svg>
